<svg xmlns="http://www.w3.org/2000/svg" width="31.5" height="23.573" viewBox="0 0 31.5 23.573">
  <path id="Icon_awesome-youtube" data-name="Icon awesome-youtube" d="M31.892,8.188a4.1,4.1,0,0,0-2.785-2.983C26.65,4.5,16.8,4.5,16.8,4.5s-9.85,0-12.307.705A4.1,4.1,0,0,0,1.708,8.188,46.973,46.973,0,0,0,1.05,16.31a46.973,46.973,0,0,0,.658,8.122,4.029,4.029,0,0,0,2.785,2.936c2.457.705,12.307.705,12.307.705s9.85,0,12.307-.705a4.029,4.029,0,0,0,2.785-2.936,46.972,46.972,0,0,0,.658-8.122,46.972,46.972,0,0,0-.658-8.122ZM13.578,21.3v-9.97l8.233,4.985L13.578,21.3Z" transform="translate(-1.05 -4.5)" fill="#fff"/>
</svg>
